<mxfile host="app.diagrams.net" modified="2020-11-01T00:03:27.939Z" agent="5.0 (Windows NT 10.0; Win64; x64) AppleWebKit/537.36 (KHTML, like Gecko) Chrome/85.0.4183.121 Safari/537.36 OPR/71.0.3770.284" etag="ITOay88qRlngyxutwrt7" version="13.8.7" type="github">
  <diagram id="2PLEH2ws_kZJPNC3M2L6" name="Page-1">
    <mxGraphModel dx="2230" dy="770" grid="1" gridSize="10" guides="1" tooltips="1" connect="1" arrows="1" fold="1" page="1" pageScale="1" pageWidth="850" pageHeight="1100" math="0" shadow="0">
      <root>
        <mxCell id="0" />
        <mxCell id="1" parent="0" />
        <mxCell id="zVRTShELpcH3X-Ul6cue-8" value="" style="rounded=0;whiteSpace=wrap;html=1;fillColor=#dae8fc;strokeColor=#6c8ebf;" parent="1" vertex="1">
          <mxGeometry x="120" y="40" width="620" height="870" as="geometry" />
        </mxCell>
        <mxCell id="6ocrz9YHpiCbbP5gVBqt-14" style="edgeStyle=none;rounded=0;orthogonalLoop=1;jettySize=auto;html=1;exitX=0.5;exitY=0.5;exitDx=0;exitDy=0;exitPerimeter=0;entryX=0;entryY=0.5;entryDx=0;entryDy=0;" parent="1" source="zVRTShELpcH3X-Ul6cue-9" target="zVRTShELpcH3X-Ul6cue-24" edge="1">
          <mxGeometry relative="1" as="geometry" />
        </mxCell>
        <mxCell id="6ocrz9YHpiCbbP5gVBqt-16" style="edgeStyle=none;rounded=0;orthogonalLoop=1;jettySize=auto;html=1;exitX=0.5;exitY=0.5;exitDx=0;exitDy=0;exitPerimeter=0;entryX=0;entryY=0.5;entryDx=0;entryDy=0;" parent="1" source="zVRTShELpcH3X-Ul6cue-9" target="zVRTShELpcH3X-Ul6cue-28" edge="1">
          <mxGeometry relative="1" as="geometry" />
        </mxCell>
        <mxCell id="6ocrz9YHpiCbbP5gVBqt-17" style="edgeStyle=none;rounded=0;orthogonalLoop=1;jettySize=auto;html=1;exitX=0.5;exitY=0.5;exitDx=0;exitDy=0;exitPerimeter=0;entryX=0;entryY=0.5;entryDx=0;entryDy=0;" parent="1" source="zVRTShELpcH3X-Ul6cue-9" target="zVRTShELpcH3X-Ul6cue-29" edge="1">
          <mxGeometry relative="1" as="geometry" />
        </mxCell>
        <mxCell id="6ocrz9YHpiCbbP5gVBqt-21" style="edgeStyle=none;rounded=0;orthogonalLoop=1;jettySize=auto;html=1;exitX=0.5;exitY=0.5;exitDx=0;exitDy=0;exitPerimeter=0;entryX=0;entryY=0.5;entryDx=0;entryDy=0;" parent="1" source="zVRTShELpcH3X-Ul6cue-9" target="zVRTShELpcH3X-Ul6cue-15" edge="1">
          <mxGeometry relative="1" as="geometry" />
        </mxCell>
        <mxCell id="6ocrz9YHpiCbbP5gVBqt-24" style="edgeStyle=none;rounded=0;orthogonalLoop=1;jettySize=auto;html=1;exitX=0.5;exitY=0.5;exitDx=0;exitDy=0;exitPerimeter=0;entryX=0;entryY=0.5;entryDx=0;entryDy=0;" parent="1" source="zVRTShELpcH3X-Ul6cue-9" target="6ocrz9YHpiCbbP5gVBqt-23" edge="1">
          <mxGeometry relative="1" as="geometry" />
        </mxCell>
        <mxCell id="zVRTShELpcH3X-Ul6cue-9" value="customer&lt;br&gt;" style="shape=umlActor;verticalLabelPosition=bottom;verticalAlign=top;html=1;" parent="1" vertex="1">
          <mxGeometry x="-10" y="430" width="40" height="90" as="geometry" />
        </mxCell>
        <mxCell id="6ocrz9YHpiCbbP5gVBqt-32" style="edgeStyle=none;rounded=0;orthogonalLoop=1;jettySize=auto;html=1;exitX=0.5;exitY=0.5;exitDx=0;exitDy=0;exitPerimeter=0;entryX=1;entryY=0.5;entryDx=0;entryDy=0;" parent="1" source="zVRTShELpcH3X-Ul6cue-10" target="6ocrz9YHpiCbbP5gVBqt-29" edge="1">
          <mxGeometry relative="1" as="geometry" />
        </mxCell>
        <mxCell id="6ocrz9YHpiCbbP5gVBqt-33" style="edgeStyle=none;rounded=0;orthogonalLoop=1;jettySize=auto;html=1;exitX=0.5;exitY=0.5;exitDx=0;exitDy=0;exitPerimeter=0;entryX=1;entryY=0.5;entryDx=0;entryDy=0;" parent="1" source="zVRTShELpcH3X-Ul6cue-10" target="6ocrz9YHpiCbbP5gVBqt-30" edge="1">
          <mxGeometry relative="1" as="geometry" />
        </mxCell>
        <mxCell id="zVRTShELpcH3X-Ul6cue-10" value="Admin&lt;br&gt;" style="shape=umlActor;verticalLabelPosition=bottom;verticalAlign=top;html=1;" parent="1" vertex="1">
          <mxGeometry x="770" y="200" width="40" height="90" as="geometry" />
        </mxCell>
        <mxCell id="6ocrz9YHpiCbbP5gVBqt-45" style="edgeStyle=none;rounded=0;orthogonalLoop=1;jettySize=auto;html=1;exitX=0.5;exitY=0.5;exitDx=0;exitDy=0;exitPerimeter=0;entryX=1;entryY=1;entryDx=0;entryDy=0;" parent="1" source="zVRTShELpcH3X-Ul6cue-11" target="6ocrz9YHpiCbbP5gVBqt-27" edge="1">
          <mxGeometry relative="1" as="geometry" />
        </mxCell>
        <mxCell id="6ocrz9YHpiCbbP5gVBqt-46" style="edgeStyle=none;rounded=0;orthogonalLoop=1;jettySize=auto;html=1;exitX=0.5;exitY=0.5;exitDx=0;exitDy=0;exitPerimeter=0;entryX=0.985;entryY=0.629;entryDx=0;entryDy=0;entryPerimeter=0;" parent="1" source="zVRTShELpcH3X-Ul6cue-11" target="6ocrz9YHpiCbbP5gVBqt-26" edge="1">
          <mxGeometry relative="1" as="geometry" />
        </mxCell>
        <mxCell id="6ocrz9YHpiCbbP5gVBqt-52" style="edgeStyle=none;rounded=0;orthogonalLoop=1;jettySize=auto;html=1;exitX=0.5;exitY=0.5;exitDx=0;exitDy=0;exitPerimeter=0;entryX=1;entryY=0.5;entryDx=0;entryDy=0;" parent="1" source="zVRTShELpcH3X-Ul6cue-11" target="6ocrz9YHpiCbbP5gVBqt-23" edge="1">
          <mxGeometry relative="1" as="geometry" />
        </mxCell>
        <mxCell id="6ocrz9YHpiCbbP5gVBqt-68" style="edgeStyle=none;rounded=0;orthogonalLoop=1;jettySize=auto;html=1;exitX=0.5;exitY=0.5;exitDx=0;exitDy=0;exitPerimeter=0;fontSize=14;" parent="1" source="zVRTShELpcH3X-Ul6cue-11" target="6ocrz9YHpiCbbP5gVBqt-67" edge="1">
          <mxGeometry relative="1" as="geometry" />
        </mxCell>
        <mxCell id="00PLhJbsI-ZX89jUqrmh-1" style="edgeStyle=none;rounded=0;orthogonalLoop=1;jettySize=auto;html=1;exitX=0.5;exitY=0.5;exitDx=0;exitDy=0;exitPerimeter=0;entryX=1;entryY=0.5;entryDx=0;entryDy=0;" edge="1" parent="1" source="zVRTShELpcH3X-Ul6cue-11" target="zVRTShELpcH3X-Ul6cue-15">
          <mxGeometry relative="1" as="geometry" />
        </mxCell>
        <mxCell id="zVRTShELpcH3X-Ul6cue-11" value="mobile car wash" style="shape=umlActor;verticalLabelPosition=bottom;verticalAlign=top;html=1;" parent="1" vertex="1">
          <mxGeometry x="770" y="680" width="40" height="90" as="geometry" />
        </mxCell>
        <mxCell id="6ocrz9YHpiCbbP5gVBqt-41" style="edgeStyle=none;rounded=0;orthogonalLoop=1;jettySize=auto;html=1;exitX=0.5;exitY=0.5;exitDx=0;exitDy=0;exitPerimeter=0;entryX=1;entryY=0.5;entryDx=0;entryDy=0;" parent="1" source="zVRTShELpcH3X-Ul6cue-12" target="6ocrz9YHpiCbbP5gVBqt-22" edge="1">
          <mxGeometry relative="1" as="geometry" />
        </mxCell>
        <mxCell id="6ocrz9YHpiCbbP5gVBqt-42" style="edgeStyle=none;rounded=0;orthogonalLoop=1;jettySize=auto;html=1;entryX=1;entryY=0.5;entryDx=0;entryDy=0;" parent="1" target="6ocrz9YHpiCbbP5gVBqt-25" edge="1">
          <mxGeometry relative="1" as="geometry">
            <mxPoint x="790" y="555" as="sourcePoint" />
          </mxGeometry>
        </mxCell>
        <mxCell id="6ocrz9YHpiCbbP5gVBqt-43" style="edgeStyle=none;rounded=0;orthogonalLoop=1;jettySize=auto;html=1;exitX=0.5;exitY=0.5;exitDx=0;exitDy=0;exitPerimeter=0;entryX=1;entryY=0.5;entryDx=0;entryDy=0;" parent="1" source="zVRTShELpcH3X-Ul6cue-12" target="6ocrz9YHpiCbbP5gVBqt-26" edge="1">
          <mxGeometry relative="1" as="geometry" />
        </mxCell>
        <mxCell id="6ocrz9YHpiCbbP5gVBqt-44" style="edgeStyle=none;rounded=0;orthogonalLoop=1;jettySize=auto;html=1;exitX=0.5;exitY=0.5;exitDx=0;exitDy=0;exitPerimeter=0;entryX=1;entryY=0.5;entryDx=0;entryDy=0;" parent="1" source="zVRTShELpcH3X-Ul6cue-12" target="6ocrz9YHpiCbbP5gVBqt-27" edge="1">
          <mxGeometry relative="1" as="geometry" />
        </mxCell>
        <mxCell id="6ocrz9YHpiCbbP5gVBqt-48" style="edgeStyle=none;rounded=0;orthogonalLoop=1;jettySize=auto;html=1;exitX=0.5;exitY=0.5;exitDx=0;exitDy=0;exitPerimeter=0;" parent="1" source="zVRTShELpcH3X-Ul6cue-12" target="zVRTShELpcH3X-Ul6cue-15" edge="1">
          <mxGeometry relative="1" as="geometry" />
        </mxCell>
        <mxCell id="6ocrz9YHpiCbbP5gVBqt-51" style="edgeStyle=none;rounded=0;orthogonalLoop=1;jettySize=auto;html=1;exitX=0.5;exitY=0.5;exitDx=0;exitDy=0;exitPerimeter=0;entryX=1;entryY=0.5;entryDx=0;entryDy=0;" parent="1" source="zVRTShELpcH3X-Ul6cue-12" target="6ocrz9YHpiCbbP5gVBqt-49" edge="1">
          <mxGeometry relative="1" as="geometry" />
        </mxCell>
        <mxCell id="zVRTShELpcH3X-Ul6cue-12" value="Car wash station" style="shape=umlActor;verticalLabelPosition=bottom;verticalAlign=top;html=1;" parent="1" vertex="1">
          <mxGeometry x="770" y="510" width="40" height="90" as="geometry" />
        </mxCell>
        <mxCell id="zVRTShELpcH3X-Ul6cue-15" value="Registration" style="ellipse;whiteSpace=wrap;html=1;fillColor=#0050ef;strokeColor=#001DBC;fontColor=#ffffff;" parent="1" vertex="1">
          <mxGeometry x="387.5" y="800" width="135" height="80" as="geometry" />
        </mxCell>
        <mxCell id="zVRTShELpcH3X-Ul6cue-19" value="&lt;font style=&quot;font-size: 15px&quot;&gt;Login&lt;/font&gt;" style="ellipse;whiteSpace=wrap;html=1;fillColor=#60a917;strokeColor=#2D7600;fontColor=#ffffff;" parent="1" vertex="1">
          <mxGeometry x="345" y="490" width="155" height="70" as="geometry" />
        </mxCell>
        <mxCell id="zVRTShELpcH3X-Ul6cue-23" value="&lt;font style=&quot;font-size: 10px&quot;&gt;Browse car wash&lt;/font&gt;" style="ellipse;whiteSpace=wrap;html=1;fillColor=#f8cecc;strokeColor=#b85450;" parent="1" vertex="1">
          <mxGeometry x="263.75" y="120" width="90" height="50" as="geometry" />
        </mxCell>
        <mxCell id="zVRTShELpcH3X-Ul6cue-24" value="book a car wash" style="ellipse;whiteSpace=wrap;html=1;fillColor=#ffe6cc;strokeColor=#d79b00;" parent="1" vertex="1">
          <mxGeometry x="210" y="270" width="110" height="60" as="geometry" />
        </mxCell>
        <mxCell id="zVRTShELpcH3X-Ul6cue-26" value="&lt;font style=&quot;font-size: 10px&quot;&gt;Choose type of service&lt;/font&gt;" style="ellipse;whiteSpace=wrap;html=1;fillColor=#f8cecc;strokeColor=#b85450;" parent="1" vertex="1">
          <mxGeometry x="387.5" y="360" width="85" height="50" as="geometry" />
        </mxCell>
        <mxCell id="zVRTShELpcH3X-Ul6cue-28" value="&lt;span style=&quot;font-size: 11px&quot;&gt;Payment&lt;/span&gt;" style="ellipse;whiteSpace=wrap;html=1;fillColor=#ffe6cc;strokeColor=#d79b00;" parent="1" vertex="1">
          <mxGeometry x="160" y="460" width="110" height="60" as="geometry" />
        </mxCell>
        <mxCell id="zVRTShELpcH3X-Ul6cue-29" value="&lt;font style=&quot;font-size: 11px&quot;&gt;submit feedback&lt;/font&gt;" style="ellipse;whiteSpace=wrap;html=1;fillColor=#ffe6cc;strokeColor=#d79b00;" parent="1" vertex="1">
          <mxGeometry x="190" y="540" width="110" height="60" as="geometry" />
        </mxCell>
        <mxCell id="zVRTShELpcH3X-Ul6cue-30" value="&lt;font style=&quot;font-size: 11px&quot;&gt;Cancel booking&lt;/font&gt;" style="ellipse;whiteSpace=wrap;html=1;fillColor=#6d8764;strokeColor=#3A5431;fontColor=#ffffff;" parent="1" vertex="1">
          <mxGeometry x="140" y="130" width="100" height="50" as="geometry" />
        </mxCell>
        <mxCell id="6ocrz9YHpiCbbP5gVBqt-6" value="include" style="endArrow=block;endSize=16;endFill=0;html=1;exitX=0.5;exitY=1;exitDx=0;exitDy=0;" parent="1" source="zVRTShELpcH3X-Ul6cue-24" target="zVRTShELpcH3X-Ul6cue-19" edge="1">
          <mxGeometry width="160" relative="1" as="geometry">
            <mxPoint x="395" y="230" as="sourcePoint" />
            <mxPoint x="450" y="440" as="targetPoint" />
          </mxGeometry>
        </mxCell>
        <mxCell id="6ocrz9YHpiCbbP5gVBqt-7" value="&lt;font style=&quot;font-size: 12px&quot;&gt;Choose place&lt;/font&gt;" style="ellipse;whiteSpace=wrap;html=1;fillColor=#f8cecc;strokeColor=#b85450;" parent="1" vertex="1">
          <mxGeometry x="370" y="210" width="90" height="50" as="geometry" />
        </mxCell>
        <mxCell id="6ocrz9YHpiCbbP5gVBqt-8" value="&lt;font style=&quot;font-size: 11px&quot;&gt;Choose time&lt;/font&gt;" style="ellipse;whiteSpace=wrap;html=1;fillColor=#f8cecc;strokeColor=#b85450;" parent="1" vertex="1">
          <mxGeometry x="395" y="280" width="90" height="50" as="geometry" />
        </mxCell>
        <mxCell id="6ocrz9YHpiCbbP5gVBqt-9" value="include" style="endArrow=block;endSize=16;endFill=0;html=1;exitX=0.5;exitY=0;exitDx=0;exitDy=0;entryX=0;entryY=1;entryDx=0;entryDy=0;" parent="1" source="zVRTShELpcH3X-Ul6cue-24" target="zVRTShELpcH3X-Ul6cue-23" edge="1">
          <mxGeometry width="160" relative="1" as="geometry">
            <mxPoint x="410.0008729652601" y="240.0032034355964" as="sourcePoint" />
            <mxPoint x="485.7624260876322" y="365.30128460256134" as="targetPoint" />
          </mxGeometry>
        </mxCell>
        <mxCell id="6ocrz9YHpiCbbP5gVBqt-10" value="include" style="endArrow=block;endSize=16;endFill=0;html=1;entryX=0;entryY=0.5;entryDx=0;entryDy=0;" parent="1" source="zVRTShELpcH3X-Ul6cue-24" target="6ocrz9YHpiCbbP5gVBqt-7" edge="1">
          <mxGeometry width="160" relative="1" as="geometry">
            <mxPoint x="268.18" y="315" as="sourcePoint" />
            <mxPoint x="229.99980515339456" y="272.6776695296637" as="targetPoint" />
          </mxGeometry>
        </mxCell>
        <mxCell id="6ocrz9YHpiCbbP5gVBqt-11" value="include" style="endArrow=block;endSize=16;endFill=0;html=1;entryX=0;entryY=0.5;entryDx=0;entryDy=0;" parent="1" source="zVRTShELpcH3X-Ul6cue-24" target="6ocrz9YHpiCbbP5gVBqt-8" edge="1">
          <mxGeometry width="160" relative="1" as="geometry">
            <mxPoint x="308.82072177549384" y="339.9959906209656" as="sourcePoint" />
            <mxPoint x="219.99980515339456" y="315.9076695296635" as="targetPoint" />
          </mxGeometry>
        </mxCell>
        <mxCell id="6ocrz9YHpiCbbP5gVBqt-13" value="include" style="endArrow=block;endSize=16;endFill=0;html=1;entryX=0.041;entryY=0.3;entryDx=0;entryDy=0;entryPerimeter=0;exitX=1;exitY=1;exitDx=0;exitDy=0;" parent="1" source="zVRTShELpcH3X-Ul6cue-24" target="zVRTShELpcH3X-Ul6cue-26" edge="1">
          <mxGeometry width="160" relative="1" as="geometry">
            <mxPoint x="284.1934955049951" y="328.41640786499875" as="sourcePoint" />
            <mxPoint x="345" y="345" as="targetPoint" />
          </mxGeometry>
        </mxCell>
        <mxCell id="6ocrz9YHpiCbbP5gVBqt-18" value="Extends" style="endArrow=block;endSize=16;endFill=0;html=1;entryX=0;entryY=0;entryDx=0;entryDy=0;exitX=0.5;exitY=1;exitDx=0;exitDy=0;fillColor=#60a917;strokeColor=#2D7600;" parent="1" source="zVRTShELpcH3X-Ul6cue-30" target="zVRTShELpcH3X-Ul6cue-24" edge="1">
          <mxGeometry width="160" relative="1" as="geometry">
            <mxPoint x="170" y="220" as="sourcePoint" />
            <mxPoint x="330" y="220" as="targetPoint" />
          </mxGeometry>
        </mxCell>
        <mxCell id="6ocrz9YHpiCbbP5gVBqt-19" value="&lt;font style=&quot;font-size: 11px&quot;&gt;Update booking&lt;/font&gt;" style="ellipse;whiteSpace=wrap;html=1;fillColor=#6d8764;strokeColor=#3A5431;fontColor=#ffffff;" parent="1" vertex="1">
          <mxGeometry x="180" y="390" width="100" height="50" as="geometry" />
        </mxCell>
        <mxCell id="6ocrz9YHpiCbbP5gVBqt-20" value="Extends" style="endArrow=block;endSize=16;endFill=0;html=1;entryX=0.258;entryY=0.976;entryDx=0;entryDy=0;exitX=0.5;exitY=0;exitDx=0;exitDy=0;entryPerimeter=0;" parent="1" source="6ocrz9YHpiCbbP5gVBqt-19" target="zVRTShELpcH3X-Ul6cue-24" edge="1">
          <mxGeometry width="160" relative="1" as="geometry">
            <mxPoint x="230" y="320" as="sourcePoint" />
            <mxPoint x="390" y="320" as="targetPoint" />
          </mxGeometry>
        </mxCell>
        <mxCell id="6ocrz9YHpiCbbP5gVBqt-22" value="Assign employee" style="ellipse;whiteSpace=wrap;html=1;fillColor=#ffe6cc;strokeColor=#d79b00;" parent="1" vertex="1">
          <mxGeometry x="580" y="410" width="110" height="60" as="geometry" />
        </mxCell>
        <mxCell id="6ocrz9YHpiCbbP5gVBqt-23" value="&lt;span style=&quot;font-weight: normal&quot;&gt;&lt;font style=&quot;font-size: 12px&quot;&gt;Browse reservations&lt;/font&gt;&lt;/span&gt;" style="ellipse;whiteSpace=wrap;html=1;strokeWidth=1;fillColor=#ffe6cc;strokeColor=#d79b00;fontSize=14;fontStyle=1" parent="1" vertex="1">
          <mxGeometry x="247.5" y="620" width="122.5" height="70" as="geometry" />
        </mxCell>
        <mxCell id="6ocrz9YHpiCbbP5gVBqt-25" value="update employee" style="ellipse;whiteSpace=wrap;html=1;fillColor=#ffe6cc;strokeColor=#d79b00;" parent="1" vertex="1">
          <mxGeometry x="580" y="480" width="110" height="60" as="geometry" />
        </mxCell>
        <mxCell id="6ocrz9YHpiCbbP5gVBqt-26" value="Add service" style="ellipse;whiteSpace=wrap;html=1;fillColor=#ffe6cc;strokeColor=#d79b00;" parent="1" vertex="1">
          <mxGeometry x="570" y="550" width="110" height="60" as="geometry" />
        </mxCell>
        <mxCell id="6ocrz9YHpiCbbP5gVBqt-27" value="update service" style="ellipse;whiteSpace=wrap;html=1;fillColor=#ffe6cc;strokeColor=#d79b00;" parent="1" vertex="1">
          <mxGeometry x="530" y="620" width="110" height="60" as="geometry" />
        </mxCell>
        <mxCell id="6ocrz9YHpiCbbP5gVBqt-29" value="Review system report" style="ellipse;whiteSpace=wrap;html=1;fillColor=#ffe6cc;strokeColor=#d79b00;" parent="1" vertex="1">
          <mxGeometry x="530" y="150" width="110" height="60" as="geometry" />
        </mxCell>
        <mxCell id="6ocrz9YHpiCbbP5gVBqt-30" value="delete car wash" style="ellipse;whiteSpace=wrap;html=1;fillColor=#ffe6cc;strokeColor=#d79b00;" parent="1" vertex="1">
          <mxGeometry x="580" y="220" width="110" height="60" as="geometry" />
        </mxCell>
        <mxCell id="6ocrz9YHpiCbbP5gVBqt-49" value="Review car wash report" style="ellipse;whiteSpace=wrap;html=1;fillColor=#ffe6cc;strokeColor=#d79b00;" parent="1" vertex="1">
          <mxGeometry x="580" y="340" width="110" height="60" as="geometry" />
        </mxCell>
        <mxCell id="6ocrz9YHpiCbbP5gVBqt-53" value="Car wash system" style="text;align=center;fontStyle=1;verticalAlign=middle;spacingLeft=3;spacingRight=3;strokeColor=none;rotatable=0;points=[[0,0.5],[1,0.5]];portConstraint=eastwest;gradientColor=none;fontSize=14;strokeWidth=14;" parent="1" vertex="1">
          <mxGeometry x="390" y="50" width="80" height="26" as="geometry" />
        </mxCell>
        <mxCell id="6ocrz9YHpiCbbP5gVBqt-56" value="include" style="endArrow=block;endSize=16;endFill=0;html=1;exitX=1;exitY=0.5;exitDx=0;exitDy=0;entryX=0;entryY=0.5;entryDx=0;entryDy=0;" parent="1" source="zVRTShELpcH3X-Ul6cue-28" target="zVRTShELpcH3X-Ul6cue-19" edge="1">
          <mxGeometry width="160" relative="1" as="geometry">
            <mxPoint x="275" y="340" as="sourcePoint" />
            <mxPoint x="405.98976472740105" y="502.1113622557991" as="targetPoint" />
          </mxGeometry>
        </mxCell>
        <mxCell id="6ocrz9YHpiCbbP5gVBqt-57" value="include" style="endArrow=block;endSize=16;endFill=0;html=1;exitX=1;exitY=0.5;exitDx=0;exitDy=0;entryX=0;entryY=1;entryDx=0;entryDy=0;" parent="1" source="zVRTShELpcH3X-Ul6cue-29" target="zVRTShELpcH3X-Ul6cue-19" edge="1">
          <mxGeometry width="160" relative="1" as="geometry">
            <mxPoint x="280" y="500" as="sourcePoint" />
            <mxPoint x="354.999999999995" y="535" as="targetPoint" />
          </mxGeometry>
        </mxCell>
        <mxCell id="6ocrz9YHpiCbbP5gVBqt-58" value="include" style="endArrow=block;endSize=16;endFill=0;html=1;entryX=0.329;entryY=0.993;entryDx=0;entryDy=0;entryPerimeter=0;" parent="1" source="6ocrz9YHpiCbbP5gVBqt-23" target="zVRTShELpcH3X-Ul6cue-19" edge="1">
          <mxGeometry width="160" relative="1" as="geometry">
            <mxPoint x="290" y="510" as="sourcePoint" />
            <mxPoint x="364.999999999995" y="545" as="targetPoint" />
          </mxGeometry>
        </mxCell>
        <mxCell id="6ocrz9YHpiCbbP5gVBqt-59" value="include" style="endArrow=block;endSize=16;endFill=0;html=1;exitX=0;exitY=1;exitDx=0;exitDy=0;" parent="1" source="6ocrz9YHpiCbbP5gVBqt-29" target="zVRTShELpcH3X-Ul6cue-19" edge="1">
          <mxGeometry width="160" relative="1" as="geometry">
            <mxPoint x="275" y="340" as="sourcePoint" />
            <mxPoint x="405.98976472740105" y="502.1113622557991" as="targetPoint" />
          </mxGeometry>
        </mxCell>
        <mxCell id="6ocrz9YHpiCbbP5gVBqt-60" value="include" style="endArrow=block;endSize=16;endFill=0;html=1;exitX=0;exitY=0.5;exitDx=0;exitDy=0;entryX=0.731;entryY=0.069;entryDx=0;entryDy=0;entryPerimeter=0;" parent="1" source="6ocrz9YHpiCbbP5gVBqt-30" target="zVRTShELpcH3X-Ul6cue-19" edge="1">
          <mxGeometry width="160" relative="1" as="geometry">
            <mxPoint x="556.0386088535565" y="211.17466910132794" as="sourcePoint" />
            <mxPoint x="445.66928603976794" y="500.5090127529875" as="targetPoint" />
          </mxGeometry>
        </mxCell>
        <mxCell id="6ocrz9YHpiCbbP5gVBqt-61" value="include" style="endArrow=block;endSize=16;endFill=0;html=1;exitX=0;exitY=0.5;exitDx=0;exitDy=0;entryX=1;entryY=0;entryDx=0;entryDy=0;" parent="1" source="6ocrz9YHpiCbbP5gVBqt-49" target="zVRTShELpcH3X-Ul6cue-19" edge="1">
          <mxGeometry width="160" relative="1" as="geometry">
            <mxPoint x="590" y="260" as="sourcePoint" />
            <mxPoint x="468.30499999999984" y="504.8299999999999" as="targetPoint" />
          </mxGeometry>
        </mxCell>
        <mxCell id="6ocrz9YHpiCbbP5gVBqt-62" value="include" style="endArrow=block;endSize=16;endFill=0;html=1;exitX=0;exitY=0.5;exitDx=0;exitDy=0;entryX=0.989;entryY=0.271;entryDx=0;entryDy=0;entryPerimeter=0;" parent="1" source="6ocrz9YHpiCbbP5gVBqt-22" target="zVRTShELpcH3X-Ul6cue-19" edge="1">
          <mxGeometry width="160" relative="1" as="geometry">
            <mxPoint x="590" y="380" as="sourcePoint" />
            <mxPoint x="490" y="510" as="targetPoint" />
          </mxGeometry>
        </mxCell>
        <mxCell id="6ocrz9YHpiCbbP5gVBqt-63" value="include" style="endArrow=block;endSize=16;endFill=0;html=1;exitX=0;exitY=0.5;exitDx=0;exitDy=0;entryX=1;entryY=0.5;entryDx=0;entryDy=0;" parent="1" source="6ocrz9YHpiCbbP5gVBqt-25" target="zVRTShELpcH3X-Ul6cue-19" edge="1">
          <mxGeometry width="160" relative="1" as="geometry">
            <mxPoint x="590" y="450" as="sourcePoint" />
            <mxPoint x="500" y="520" as="targetPoint" />
          </mxGeometry>
        </mxCell>
        <mxCell id="6ocrz9YHpiCbbP5gVBqt-65" value="include" style="endArrow=block;endSize=16;endFill=0;html=1;exitX=0;exitY=0.5;exitDx=0;exitDy=0;entryX=0.982;entryY=0.691;entryDx=0;entryDy=0;entryPerimeter=0;" parent="1" source="6ocrz9YHpiCbbP5gVBqt-26" target="zVRTShELpcH3X-Ul6cue-19" edge="1">
          <mxGeometry width="160" relative="1" as="geometry">
            <mxPoint x="590" y="520" as="sourcePoint" />
            <mxPoint x="510" y="530" as="targetPoint" />
          </mxGeometry>
        </mxCell>
        <mxCell id="6ocrz9YHpiCbbP5gVBqt-66" value="include" style="endArrow=block;endSize=16;endFill=0;html=1;exitX=0;exitY=0;exitDx=0;exitDy=0;entryX=1;entryY=1;entryDx=0;entryDy=0;" parent="1" source="6ocrz9YHpiCbbP5gVBqt-27" target="zVRTShELpcH3X-Ul6cue-19" edge="1">
          <mxGeometry width="160" relative="1" as="geometry">
            <mxPoint x="579.9999999999927" y="590" as="sourcePoint" />
            <mxPoint x="507.21000000000004" y="548.3700000000001" as="targetPoint" />
          </mxGeometry>
        </mxCell>
        <mxCell id="6ocrz9YHpiCbbP5gVBqt-67" value="Receive request" style="ellipse;whiteSpace=wrap;html=1;fillColor=#ffe6cc;strokeColor=#d79b00;" parent="1" vertex="1">
          <mxGeometry x="440" y="690" width="110" height="60" as="geometry" />
        </mxCell>
        <mxCell id="6ocrz9YHpiCbbP5gVBqt-69" value="include" style="endArrow=block;endSize=16;endFill=0;html=1;exitX=0;exitY=0;exitDx=0;exitDy=0;entryX=0.5;entryY=1;entryDx=0;entryDy=0;" parent="1" source="6ocrz9YHpiCbbP5gVBqt-67" target="zVRTShELpcH3X-Ul6cue-19" edge="1">
          <mxGeometry width="160" relative="1" as="geometry">
            <mxPoint x="556.0386088535565" y="638.8253308986723" as="sourcePoint" />
            <mxPoint x="487.6329837710755" y="559.5977927594029" as="targetPoint" />
          </mxGeometry>
        </mxCell>
        <mxCell id="6ocrz9YHpiCbbP5gVBqt-70" value="&lt;font style=&quot;font-size: 10px&quot;&gt;Choose type of car&lt;/font&gt;" style="ellipse;whiteSpace=wrap;html=1;fillColor=#f8cecc;strokeColor=#b85450;" parent="1" vertex="1">
          <mxGeometry x="345" y="155" width="90" height="50" as="geometry" />
        </mxCell>
        <mxCell id="6ocrz9YHpiCbbP5gVBqt-71" value="include" style="endArrow=block;endSize=16;endFill=0;html=1;exitX=0.712;exitY=0.014;exitDx=0;exitDy=0;entryX=0.056;entryY=0.7;entryDx=0;entryDy=0;entryPerimeter=0;exitPerimeter=0;" parent="1" source="zVRTShELpcH3X-Ul6cue-24" target="6ocrz9YHpiCbbP5gVBqt-70" edge="1">
          <mxGeometry width="160" relative="1" as="geometry">
            <mxPoint x="275" y="280" as="sourcePoint" />
            <mxPoint x="286.93019484660545" y="172.67766952966372" as="targetPoint" />
          </mxGeometry>
        </mxCell>
      </root>
    </mxGraphModel>
  </diagram>
</mxfile>
